<svg xmlns="http://www.w3.org/2000/svg" width="600" height="400" viewBox="0 0 600 400"><rect width="100%" height="100%" fill="#DDDDDD"/><path fill="#999999" d="M319.05 200q0 15.9-5.25 29.45-5.25 13.55-14.85 23.45-9.6 9.9-23.1 15.45-13.5 5.55-30 5.55-16.4 0-29.9-5.55T192.8 252.9q-9.65-9.9-14.95-23.45-5.3-13.55-5.3-29.45 0-15.9 5.3-29.45 5.3-13.55 14.95-23.45 9.65-9.9 23.15-15.45 13.5-5.55 29.9-5.55 11 0 20.7 2.55t17.8 7.2q8.1 4.65 14.55 11.3 6.45 6.65 10.95 14.85 4.5 8.2 6.85 17.8 2.35 9.6 2.35 20.2Zm-27.5 0q0-11.9-3.2-21.35-3.2-9.45-9.1-16.05-5.9-6.6-14.35-10.1t-19.05-3.5q-10.6 0-19.05 3.5-8.45 3.5-14.4 10.1-5.95 6.6-9.15 16.05-3.2 9.45-3.2 21.35 0 11.9 3.2 21.35 3.2 9.45 9.15 16 5.95 6.55 14.4 10.05 8.45 3.5 19.05 3.5 10.6 0 19.05-3.5 8.45-3.5 14.35-10.05 5.9-6.55 9.1-16 3.2-9.45 3.2-21.35Zm78.1 50.1h57.8v22.2h-84.7V127.7h26.9v122.4Z"/></svg>